<?xml version="1.0" encoding="utf-8" standalone="no"?>
<!DOCTYPE svg PUBLIC "-//W3C//DTD SVG 1.1//EN"
  "http://www.w3.org/Graphics/SVG/1.1/DTD/svg11.dtd">
<svg xmlns:xlink="http://www.w3.org/1999/xlink" width="460.8pt" height="345.6pt" viewBox="0 0 460.8 345.6" xmlns="http://www.w3.org/2000/svg" version="1.1">
 <metadata>
  <rdf:RDF xmlns:dc="http://purl.org/dc/elements/1.1/" xmlns:cc="http://creativecommons.org/ns#" xmlns:rdf="http://www.w3.org/1999/02/22-rdf-syntax-ns#">
   <cc:Work>
    <dc:type rdf:resource="http://purl.org/dc/dcmitype/StillImage"/>
    <dc:date>2023-06-13T09:59:05.976172</dc:date>
    <dc:format>image/svg+xml</dc:format>
    <dc:creator>
     <cc:Agent>
      <dc:title>Matplotlib v3.6.3, https://matplotlib.org/</dc:title>
     </cc:Agent>
    </dc:creator>
   </cc:Work>
  </rdf:RDF>
 </metadata>
 <defs>
  <style type="text/css">*{stroke-linejoin: round; stroke-linecap: butt}</style>
 </defs>
 <g id="figure_1">
  <g id="patch_1">
   <path d="M 0 345.6 
L 460.8 345.6 
L 460.8 0 
L 0 0 
z
" style="fill: #ffffff"/>
  </g>
  <g id="axes_1">
   <g id="patch_2">
    <path d="M 57.6 307.584 
L 414.72 307.584 
L 414.72 41.472 
L 57.6 41.472 
z
" style="fill: #ffffff"/>
   </g>
   <g id="matplotlib.axis_1">
    <g id="xtick_1">
     <g id="line2d_1">
      <defs>
       <path id="m37ddaa1849" d="M 0 0 
L 0 3.5 
" style="stroke: #000000; stroke-width: 0.8"/>
      </defs>
      <g>
       <use xlink:href="#m37ddaa1849" x="71.853126" y="307.584" style="stroke: #000000; stroke-width: 0.8"/>
      </g>
     </g>
     <g id="text_1">
      <!-- 0.0 -->
      <g transform="translate(63.901564 322.182437) scale(0.1 -0.1)">
       <defs>
        <path id="DejaVuSans-30" d="M 2034 4250 
Q 1547 4250 1301 3770 
Q 1056 3291 1056 2328 
Q 1056 1369 1301 889 
Q 1547 409 2034 409 
Q 2525 409 2770 889 
Q 3016 1369 3016 2328 
Q 3016 3291 2770 3770 
Q 2525 4250 2034 4250 
z
M 2034 4750 
Q 2819 4750 3233 4129 
Q 3647 3509 3647 2328 
Q 3647 1150 3233 529 
Q 2819 -91 2034 -91 
Q 1250 -91 836 529 
Q 422 1150 422 2328 
Q 422 3509 836 4129 
Q 1250 4750 2034 4750 
z
" transform="scale(0.015625)"/>
        <path id="DejaVuSans-2e" d="M 684 794 
L 1344 794 
L 1344 0 
L 684 0 
L 684 794 
z
" transform="scale(0.015625)"/>
       </defs>
       <use xlink:href="#DejaVuSans-30"/>
       <use xlink:href="#DejaVuSans-2e" x="63.623047"/>
       <use xlink:href="#DejaVuSans-30" x="95.410156"/>
      </g>
     </g>
    </g>
    <g id="xtick_2">
     <g id="line2d_2">
      <g>
       <use xlink:href="#m37ddaa1849" x="119.36655" y="307.584" style="stroke: #000000; stroke-width: 0.8"/>
      </g>
     </g>
     <g id="text_2">
      <!-- 0.5 -->
      <g transform="translate(111.414988 322.182437) scale(0.1 -0.1)">
       <defs>
        <path id="DejaVuSans-35" d="M 691 4666 
L 3169 4666 
L 3169 4134 
L 1269 4134 
L 1269 2991 
Q 1406 3038 1543 3061 
Q 1681 3084 1819 3084 
Q 2600 3084 3056 2656 
Q 3513 2228 3513 1497 
Q 3513 744 3044 326 
Q 2575 -91 1722 -91 
Q 1428 -91 1123 -41 
Q 819 9 494 109 
L 494 744 
Q 775 591 1075 516 
Q 1375 441 1709 441 
Q 2250 441 2565 725 
Q 2881 1009 2881 1497 
Q 2881 1984 2565 2268 
Q 2250 2553 1709 2553 
Q 1456 2553 1204 2497 
Q 953 2441 691 2322 
L 691 4666 
z
" transform="scale(0.015625)"/>
       </defs>
       <use xlink:href="#DejaVuSans-30"/>
       <use xlink:href="#DejaVuSans-2e" x="63.623047"/>
       <use xlink:href="#DejaVuSans-35" x="95.410156"/>
      </g>
     </g>
    </g>
    <g id="xtick_3">
     <g id="line2d_3">
      <g>
       <use xlink:href="#m37ddaa1849" x="166.879974" y="307.584" style="stroke: #000000; stroke-width: 0.8"/>
      </g>
     </g>
     <g id="text_3">
      <!-- 1.0 -->
      <g transform="translate(158.928411 322.182437) scale(0.1 -0.1)">
       <defs>
        <path id="DejaVuSans-31" d="M 794 531 
L 1825 531 
L 1825 4091 
L 703 3866 
L 703 4441 
L 1819 4666 
L 2450 4666 
L 2450 531 
L 3481 531 
L 3481 0 
L 794 0 
L 794 531 
z
" transform="scale(0.015625)"/>
       </defs>
       <use xlink:href="#DejaVuSans-31"/>
       <use xlink:href="#DejaVuSans-2e" x="63.623047"/>
       <use xlink:href="#DejaVuSans-30" x="95.410156"/>
      </g>
     </g>
    </g>
    <g id="xtick_4">
     <g id="line2d_4">
      <g>
       <use xlink:href="#m37ddaa1849" x="214.393398" y="307.584" style="stroke: #000000; stroke-width: 0.8"/>
      </g>
     </g>
     <g id="text_4">
      <!-- 1.5 -->
      <g transform="translate(206.441835 322.182437) scale(0.1 -0.1)">
       <use xlink:href="#DejaVuSans-31"/>
       <use xlink:href="#DejaVuSans-2e" x="63.623047"/>
       <use xlink:href="#DejaVuSans-35" x="95.410156"/>
      </g>
     </g>
    </g>
    <g id="xtick_5">
     <g id="line2d_5">
      <g>
       <use xlink:href="#m37ddaa1849" x="261.906821" y="307.584" style="stroke: #000000; stroke-width: 0.8"/>
      </g>
     </g>
     <g id="text_5">
      <!-- 2.0 -->
      <g transform="translate(253.955259 322.182437) scale(0.1 -0.1)">
       <defs>
        <path id="DejaVuSans-32" d="M 1228 531 
L 3431 531 
L 3431 0 
L 469 0 
L 469 531 
Q 828 903 1448 1529 
Q 2069 2156 2228 2338 
Q 2531 2678 2651 2914 
Q 2772 3150 2772 3378 
Q 2772 3750 2511 3984 
Q 2250 4219 1831 4219 
Q 1534 4219 1204 4116 
Q 875 4013 500 3803 
L 500 4441 
Q 881 4594 1212 4672 
Q 1544 4750 1819 4750 
Q 2544 4750 2975 4387 
Q 3406 4025 3406 3419 
Q 3406 3131 3298 2873 
Q 3191 2616 2906 2266 
Q 2828 2175 2409 1742 
Q 1991 1309 1228 531 
z
" transform="scale(0.015625)"/>
       </defs>
       <use xlink:href="#DejaVuSans-32"/>
       <use xlink:href="#DejaVuSans-2e" x="63.623047"/>
       <use xlink:href="#DejaVuSans-30" x="95.410156"/>
      </g>
     </g>
    </g>
    <g id="xtick_6">
     <g id="line2d_6">
      <g>
       <use xlink:href="#m37ddaa1849" x="309.420245" y="307.584" style="stroke: #000000; stroke-width: 0.8"/>
      </g>
     </g>
     <g id="text_6">
      <!-- 2.5 -->
      <g transform="translate(301.468682 322.182437) scale(0.1 -0.1)">
       <use xlink:href="#DejaVuSans-32"/>
       <use xlink:href="#DejaVuSans-2e" x="63.623047"/>
       <use xlink:href="#DejaVuSans-35" x="95.410156"/>
      </g>
     </g>
    </g>
    <g id="xtick_7">
     <g id="line2d_7">
      <g>
       <use xlink:href="#m37ddaa1849" x="356.933669" y="307.584" style="stroke: #000000; stroke-width: 0.8"/>
      </g>
     </g>
     <g id="text_7">
      <!-- 3.0 -->
      <g transform="translate(348.982106 322.182437) scale(0.1 -0.1)">
       <defs>
        <path id="DejaVuSans-33" d="M 2597 2516 
Q 3050 2419 3304 2112 
Q 3559 1806 3559 1356 
Q 3559 666 3084 287 
Q 2609 -91 1734 -91 
Q 1441 -91 1130 -33 
Q 819 25 488 141 
L 488 750 
Q 750 597 1062 519 
Q 1375 441 1716 441 
Q 2309 441 2620 675 
Q 2931 909 2931 1356 
Q 2931 1769 2642 2001 
Q 2353 2234 1838 2234 
L 1294 2234 
L 1294 2753 
L 1863 2753 
Q 2328 2753 2575 2939 
Q 2822 3125 2822 3475 
Q 2822 3834 2567 4026 
Q 2313 4219 1838 4219 
Q 1578 4219 1281 4162 
Q 984 4106 628 3988 
L 628 4550 
Q 988 4650 1302 4700 
Q 1616 4750 1894 4750 
Q 2613 4750 3031 4423 
Q 3450 4097 3450 3541 
Q 3450 3153 3228 2886 
Q 3006 2619 2597 2516 
z
" transform="scale(0.015625)"/>
       </defs>
       <use xlink:href="#DejaVuSans-33"/>
       <use xlink:href="#DejaVuSans-2e" x="63.623047"/>
       <use xlink:href="#DejaVuSans-30" x="95.410156"/>
      </g>
     </g>
    </g>
    <g id="xtick_8">
     <g id="line2d_8">
      <g>
       <use xlink:href="#m37ddaa1849" x="404.447092" y="307.584" style="stroke: #000000; stroke-width: 0.8"/>
      </g>
     </g>
     <g id="text_8">
      <!-- 3.5 -->
      <g transform="translate(396.49553 322.182437) scale(0.1 -0.1)">
       <use xlink:href="#DejaVuSans-33"/>
       <use xlink:href="#DejaVuSans-2e" x="63.623047"/>
       <use xlink:href="#DejaVuSans-35" x="95.410156"/>
      </g>
     </g>
    </g>
    <g id="text_9">
     <!-- Neutron Wavelength [$\AA$] -->
     <g transform="translate(175.41 337.562125) scale(0.1 -0.1)">
      <defs>
       <path id="DejaVuSans-4e" d="M 628 4666 
L 1478 4666 
L 3547 763 
L 3547 4666 
L 4159 4666 
L 4159 0 
L 3309 0 
L 1241 3903 
L 1241 0 
L 628 0 
L 628 4666 
z
" transform="scale(0.015625)"/>
       <path id="DejaVuSans-65" d="M 3597 1894 
L 3597 1613 
L 953 1613 
Q 991 1019 1311 708 
Q 1631 397 2203 397 
Q 2534 397 2845 478 
Q 3156 559 3463 722 
L 3463 178 
Q 3153 47 2828 -22 
Q 2503 -91 2169 -91 
Q 1331 -91 842 396 
Q 353 884 353 1716 
Q 353 2575 817 3079 
Q 1281 3584 2069 3584 
Q 2775 3584 3186 3129 
Q 3597 2675 3597 1894 
z
M 3022 2063 
Q 3016 2534 2758 2815 
Q 2500 3097 2075 3097 
Q 1594 3097 1305 2825 
Q 1016 2553 972 2059 
L 3022 2063 
z
" transform="scale(0.015625)"/>
       <path id="DejaVuSans-75" d="M 544 1381 
L 544 3500 
L 1119 3500 
L 1119 1403 
Q 1119 906 1312 657 
Q 1506 409 1894 409 
Q 2359 409 2629 706 
Q 2900 1003 2900 1516 
L 2900 3500 
L 3475 3500 
L 3475 0 
L 2900 0 
L 2900 538 
Q 2691 219 2414 64 
Q 2138 -91 1772 -91 
Q 1169 -91 856 284 
Q 544 659 544 1381 
z
M 1991 3584 
L 1991 3584 
z
" transform="scale(0.015625)"/>
       <path id="DejaVuSans-74" d="M 1172 4494 
L 1172 3500 
L 2356 3500 
L 2356 3053 
L 1172 3053 
L 1172 1153 
Q 1172 725 1289 603 
Q 1406 481 1766 481 
L 2356 481 
L 2356 0 
L 1766 0 
Q 1100 0 847 248 
Q 594 497 594 1153 
L 594 3053 
L 172 3053 
L 172 3500 
L 594 3500 
L 594 4494 
L 1172 4494 
z
" transform="scale(0.015625)"/>
       <path id="DejaVuSans-72" d="M 2631 2963 
Q 2534 3019 2420 3045 
Q 2306 3072 2169 3072 
Q 1681 3072 1420 2755 
Q 1159 2438 1159 1844 
L 1159 0 
L 581 0 
L 581 3500 
L 1159 3500 
L 1159 2956 
Q 1341 3275 1631 3429 
Q 1922 3584 2338 3584 
Q 2397 3584 2469 3576 
Q 2541 3569 2628 3553 
L 2631 2963 
z
" transform="scale(0.015625)"/>
       <path id="DejaVuSans-6f" d="M 1959 3097 
Q 1497 3097 1228 2736 
Q 959 2375 959 1747 
Q 959 1119 1226 758 
Q 1494 397 1959 397 
Q 2419 397 2687 759 
Q 2956 1122 2956 1747 
Q 2956 2369 2687 2733 
Q 2419 3097 1959 3097 
z
M 1959 3584 
Q 2709 3584 3137 3096 
Q 3566 2609 3566 1747 
Q 3566 888 3137 398 
Q 2709 -91 1959 -91 
Q 1206 -91 779 398 
Q 353 888 353 1747 
Q 353 2609 779 3096 
Q 1206 3584 1959 3584 
z
" transform="scale(0.015625)"/>
       <path id="DejaVuSans-6e" d="M 3513 2113 
L 3513 0 
L 2938 0 
L 2938 2094 
Q 2938 2591 2744 2837 
Q 2550 3084 2163 3084 
Q 1697 3084 1428 2787 
Q 1159 2491 1159 1978 
L 1159 0 
L 581 0 
L 581 3500 
L 1159 3500 
L 1159 2956 
Q 1366 3272 1645 3428 
Q 1925 3584 2291 3584 
Q 2894 3584 3203 3211 
Q 3513 2838 3513 2113 
z
" transform="scale(0.015625)"/>
       <path id="DejaVuSans-20" transform="scale(0.015625)"/>
       <path id="DejaVuSans-57" d="M 213 4666 
L 850 4666 
L 1831 722 
L 2809 4666 
L 3519 4666 
L 4500 722 
L 5478 4666 
L 6119 4666 
L 4947 0 
L 4153 0 
L 3169 4050 
L 2175 0 
L 1381 0 
L 213 4666 
z
" transform="scale(0.015625)"/>
       <path id="DejaVuSans-61" d="M 2194 1759 
Q 1497 1759 1228 1600 
Q 959 1441 959 1056 
Q 959 750 1161 570 
Q 1363 391 1709 391 
Q 2188 391 2477 730 
Q 2766 1069 2766 1631 
L 2766 1759 
L 2194 1759 
z
M 3341 1997 
L 3341 0 
L 2766 0 
L 2766 531 
Q 2569 213 2275 61 
Q 1981 -91 1556 -91 
Q 1019 -91 701 211 
Q 384 513 384 1019 
Q 384 1609 779 1909 
Q 1175 2209 1959 2209 
L 2766 2209 
L 2766 2266 
Q 2766 2663 2505 2880 
Q 2244 3097 1772 3097 
Q 1472 3097 1187 3025 
Q 903 2953 641 2809 
L 641 3341 
Q 956 3463 1253 3523 
Q 1550 3584 1831 3584 
Q 2591 3584 2966 3190 
Q 3341 2797 3341 1997 
z
" transform="scale(0.015625)"/>
       <path id="DejaVuSans-76" d="M 191 3500 
L 800 3500 
L 1894 563 
L 2988 3500 
L 3597 3500 
L 2284 0 
L 1503 0 
L 191 3500 
z
" transform="scale(0.015625)"/>
       <path id="DejaVuSans-6c" d="M 603 4863 
L 1178 4863 
L 1178 0 
L 603 0 
L 603 4863 
z
" transform="scale(0.015625)"/>
       <path id="DejaVuSans-67" d="M 2906 1791 
Q 2906 2416 2648 2759 
Q 2391 3103 1925 3103 
Q 1463 3103 1205 2759 
Q 947 2416 947 1791 
Q 947 1169 1205 825 
Q 1463 481 1925 481 
Q 2391 481 2648 825 
Q 2906 1169 2906 1791 
z
M 3481 434 
Q 3481 -459 3084 -895 
Q 2688 -1331 1869 -1331 
Q 1566 -1331 1297 -1286 
Q 1028 -1241 775 -1147 
L 775 -588 
Q 1028 -725 1275 -790 
Q 1522 -856 1778 -856 
Q 2344 -856 2625 -561 
Q 2906 -266 2906 331 
L 2906 616 
Q 2728 306 2450 153 
Q 2172 0 1784 0 
Q 1141 0 747 490 
Q 353 981 353 1791 
Q 353 2603 747 3093 
Q 1141 3584 1784 3584 
Q 2172 3584 2450 3431 
Q 2728 3278 2906 2969 
L 2906 3500 
L 3481 3500 
L 3481 434 
z
" transform="scale(0.015625)"/>
       <path id="DejaVuSans-68" d="M 3513 2113 
L 3513 0 
L 2938 0 
L 2938 2094 
Q 2938 2591 2744 2837 
Q 2550 3084 2163 3084 
Q 1697 3084 1428 2787 
Q 1159 2491 1159 1978 
L 1159 0 
L 581 0 
L 581 4863 
L 1159 4863 
L 1159 2956 
Q 1366 3272 1645 3428 
Q 1925 3584 2291 3584 
Q 2894 3584 3203 3211 
Q 3513 2838 3513 2113 
z
" transform="scale(0.015625)"/>
       <path id="DejaVuSans-5b" d="M 550 4863 
L 1875 4863 
L 1875 4416 
L 1125 4416 
L 1125 -397 
L 1875 -397 
L 1875 -844 
L 550 -844 
L 550 4863 
z
" transform="scale(0.015625)"/>
       <path id="DejaVuSans-Oblique-c5" d="M 3188 5081 
Q 3188 5278 3048 5417 
Q 2909 5556 2713 5556 
Q 2513 5556 2377 5420 
Q 2241 5284 2241 5081 
Q 2241 4884 2377 4746 
Q 2513 4609 2713 4609 
Q 2909 4609 3048 4746 
Q 3188 4884 3188 5081 
z
M 2203 4397 
Q 2034 4513 1945 4689 
Q 1856 4866 1856 5081 
Q 1856 5438 2106 5689 
Q 2356 5941 2713 5941 
Q 3069 5941 3320 5689 
Q 3572 5438 3572 5081 
Q 3572 4834 3458 4643 
Q 3344 4453 3128 4341 
L 3938 0 
L 3278 0 
L 3084 1197 
L 984 1197 
L 325 0 
L -341 0 
L 2203 4397 
z
M 2584 4044 
L 1275 1722 
L 2988 1722 
L 2584 4044 
z
" transform="scale(0.015625)"/>
       <path id="DejaVuSans-5d" d="M 1947 4863 
L 1947 -844 
L 622 -844 
L 622 -397 
L 1369 -397 
L 1369 4416 
L 622 4416 
L 622 4863 
L 1947 4863 
z
" transform="scale(0.015625)"/>
      </defs>
      <use xlink:href="#DejaVuSans-4e" transform="translate(0 0.171875)"/>
      <use xlink:href="#DejaVuSans-65" transform="translate(74.804688 0.171875)"/>
      <use xlink:href="#DejaVuSans-75" transform="translate(136.328125 0.171875)"/>
      <use xlink:href="#DejaVuSans-74" transform="translate(199.707031 0.171875)"/>
      <use xlink:href="#DejaVuSans-72" transform="translate(238.916016 0.171875)"/>
      <use xlink:href="#DejaVuSans-6f" transform="translate(280.029297 0.171875)"/>
      <use xlink:href="#DejaVuSans-6e" transform="translate(341.210938 0.171875)"/>
      <use xlink:href="#DejaVuSans-20" transform="translate(404.589844 0.171875)"/>
      <use xlink:href="#DejaVuSans-57" transform="translate(436.376953 0.171875)"/>
      <use xlink:href="#DejaVuSans-61" transform="translate(535.253906 0.171875)"/>
      <use xlink:href="#DejaVuSans-76" transform="translate(596.533203 0.171875)"/>
      <use xlink:href="#DejaVuSans-65" transform="translate(655.712891 0.171875)"/>
      <use xlink:href="#DejaVuSans-6c" transform="translate(717.236328 0.171875)"/>
      <use xlink:href="#DejaVuSans-65" transform="translate(745.019531 0.171875)"/>
      <use xlink:href="#DejaVuSans-6e" transform="translate(806.542969 0.171875)"/>
      <use xlink:href="#DejaVuSans-67" transform="translate(869.921875 0.171875)"/>
      <use xlink:href="#DejaVuSans-74" transform="translate(933.398438 0.171875)"/>
      <use xlink:href="#DejaVuSans-68" transform="translate(972.607422 0.171875)"/>
      <use xlink:href="#DejaVuSans-20" transform="translate(1035.986328 0.171875)"/>
      <use xlink:href="#DejaVuSans-5b" transform="translate(1067.773438 0.171875)"/>
      <use xlink:href="#DejaVuSans-Oblique-c5" transform="translate(1106.787109 0.171875)"/>
      <use xlink:href="#DejaVuSans-5d" transform="translate(1175.195312 0.171875)"/>
     </g>
    </g>
   </g>
   <g id="matplotlib.axis_2">
    <g id="ytick_1">
     <g id="line2d_9">
      <defs>
       <path id="ma5a3563cde" d="M 0 0 
L -3.5 0 
" style="stroke: #000000; stroke-width: 0.8"/>
      </defs>
      <g>
       <use xlink:href="#ma5a3563cde" x="57.6" y="307.584" style="stroke: #000000; stroke-width: 0.8"/>
      </g>
     </g>
     <g id="text_10">
      <!-- 0.0 -->
      <g transform="translate(34.696875 311.383219) scale(0.1 -0.1)">
       <use xlink:href="#DejaVuSans-30"/>
       <use xlink:href="#DejaVuSans-2e" x="63.623047"/>
       <use xlink:href="#DejaVuSans-30" x="95.410156"/>
      </g>
     </g>
    </g>
    <g id="ytick_2">
     <g id="line2d_10">
      <g>
       <use xlink:href="#ma5a3563cde" x="57.6" y="254.3616" style="stroke: #000000; stroke-width: 0.8"/>
      </g>
     </g>
     <g id="text_11">
      <!-- 0.2 -->
      <g transform="translate(34.696875 258.160819) scale(0.1 -0.1)">
       <use xlink:href="#DejaVuSans-30"/>
       <use xlink:href="#DejaVuSans-2e" x="63.623047"/>
       <use xlink:href="#DejaVuSans-32" x="95.410156"/>
      </g>
     </g>
    </g>
    <g id="ytick_3">
     <g id="line2d_11">
      <g>
       <use xlink:href="#ma5a3563cde" x="57.6" y="201.1392" style="stroke: #000000; stroke-width: 0.8"/>
      </g>
     </g>
     <g id="text_12">
      <!-- 0.4 -->
      <g transform="translate(34.696875 204.938419) scale(0.1 -0.1)">
       <defs>
        <path id="DejaVuSans-34" d="M 2419 4116 
L 825 1625 
L 2419 1625 
L 2419 4116 
z
M 2253 4666 
L 3047 4666 
L 3047 1625 
L 3713 1625 
L 3713 1100 
L 3047 1100 
L 3047 0 
L 2419 0 
L 2419 1100 
L 313 1100 
L 313 1709 
L 2253 4666 
z
" transform="scale(0.015625)"/>
       </defs>
       <use xlink:href="#DejaVuSans-30"/>
       <use xlink:href="#DejaVuSans-2e" x="63.623047"/>
       <use xlink:href="#DejaVuSans-34" x="95.410156"/>
      </g>
     </g>
    </g>
    <g id="ytick_4">
     <g id="line2d_12">
      <g>
       <use xlink:href="#ma5a3563cde" x="57.6" y="147.9168" style="stroke: #000000; stroke-width: 0.8"/>
      </g>
     </g>
     <g id="text_13">
      <!-- 0.6 -->
      <g transform="translate(34.696875 151.716019) scale(0.1 -0.1)">
       <defs>
        <path id="DejaVuSans-36" d="M 2113 2584 
Q 1688 2584 1439 2293 
Q 1191 2003 1191 1497 
Q 1191 994 1439 701 
Q 1688 409 2113 409 
Q 2538 409 2786 701 
Q 3034 994 3034 1497 
Q 3034 2003 2786 2293 
Q 2538 2584 2113 2584 
z
M 3366 4563 
L 3366 3988 
Q 3128 4100 2886 4159 
Q 2644 4219 2406 4219 
Q 1781 4219 1451 3797 
Q 1122 3375 1075 2522 
Q 1259 2794 1537 2939 
Q 1816 3084 2150 3084 
Q 2853 3084 3261 2657 
Q 3669 2231 3669 1497 
Q 3669 778 3244 343 
Q 2819 -91 2113 -91 
Q 1303 -91 875 529 
Q 447 1150 447 2328 
Q 447 3434 972 4092 
Q 1497 4750 2381 4750 
Q 2619 4750 2861 4703 
Q 3103 4656 3366 4563 
z
" transform="scale(0.015625)"/>
       </defs>
       <use xlink:href="#DejaVuSans-30"/>
       <use xlink:href="#DejaVuSans-2e" x="63.623047"/>
       <use xlink:href="#DejaVuSans-36" x="95.410156"/>
      </g>
     </g>
    </g>
    <g id="ytick_5">
     <g id="line2d_13">
      <g>
       <use xlink:href="#ma5a3563cde" x="57.6" y="94.6944" style="stroke: #000000; stroke-width: 0.8"/>
      </g>
     </g>
     <g id="text_14">
      <!-- 0.8 -->
      <g transform="translate(34.696875 98.493619) scale(0.1 -0.1)">
       <defs>
        <path id="DejaVuSans-38" d="M 2034 2216 
Q 1584 2216 1326 1975 
Q 1069 1734 1069 1313 
Q 1069 891 1326 650 
Q 1584 409 2034 409 
Q 2484 409 2743 651 
Q 3003 894 3003 1313 
Q 3003 1734 2745 1975 
Q 2488 2216 2034 2216 
z
M 1403 2484 
Q 997 2584 770 2862 
Q 544 3141 544 3541 
Q 544 4100 942 4425 
Q 1341 4750 2034 4750 
Q 2731 4750 3128 4425 
Q 3525 4100 3525 3541 
Q 3525 3141 3298 2862 
Q 3072 2584 2669 2484 
Q 3125 2378 3379 2068 
Q 3634 1759 3634 1313 
Q 3634 634 3220 271 
Q 2806 -91 2034 -91 
Q 1263 -91 848 271 
Q 434 634 434 1313 
Q 434 1759 690 2068 
Q 947 2378 1403 2484 
z
M 1172 3481 
Q 1172 3119 1398 2916 
Q 1625 2713 2034 2713 
Q 2441 2713 2670 2916 
Q 2900 3119 2900 3481 
Q 2900 3844 2670 4047 
Q 2441 4250 2034 4250 
Q 1625 4250 1398 4047 
Q 1172 3844 1172 3481 
z
" transform="scale(0.015625)"/>
       </defs>
       <use xlink:href="#DejaVuSans-30"/>
       <use xlink:href="#DejaVuSans-2e" x="63.623047"/>
       <use xlink:href="#DejaVuSans-38" x="95.410156"/>
      </g>
     </g>
    </g>
    <g id="ytick_6">
     <g id="line2d_14">
      <g>
       <use xlink:href="#ma5a3563cde" x="57.6" y="41.472" style="stroke: #000000; stroke-width: 0.8"/>
      </g>
     </g>
     <g id="text_15">
      <!-- 1.0 -->
      <g transform="translate(34.696875 45.271219) scale(0.1 -0.1)">
       <use xlink:href="#DejaVuSans-31"/>
       <use xlink:href="#DejaVuSans-2e" x="63.623047"/>
       <use xlink:href="#DejaVuSans-30" x="95.410156"/>
      </g>
     </g>
    </g>
    <g id="text_16">
     <!-- Area Normalized CountRate [Counts/(cm$^2\cdot s \cdot\AA$)] -->
     <g transform="translate(28.617187 295.878) rotate(-90) scale(0.1 -0.1)">
      <defs>
       <path id="DejaVuSans-41" d="M 2188 4044 
L 1331 1722 
L 3047 1722 
L 2188 4044 
z
M 1831 4666 
L 2547 4666 
L 4325 0 
L 3669 0 
L 3244 1197 
L 1141 1197 
L 716 0 
L 50 0 
L 1831 4666 
z
" transform="scale(0.015625)"/>
       <path id="DejaVuSans-6d" d="M 3328 2828 
Q 3544 3216 3844 3400 
Q 4144 3584 4550 3584 
Q 5097 3584 5394 3201 
Q 5691 2819 5691 2113 
L 5691 0 
L 5113 0 
L 5113 2094 
Q 5113 2597 4934 2840 
Q 4756 3084 4391 3084 
Q 3944 3084 3684 2787 
Q 3425 2491 3425 1978 
L 3425 0 
L 2847 0 
L 2847 2094 
Q 2847 2600 2669 2842 
Q 2491 3084 2119 3084 
Q 1678 3084 1418 2786 
Q 1159 2488 1159 1978 
L 1159 0 
L 581 0 
L 581 3500 
L 1159 3500 
L 1159 2956 
Q 1356 3278 1631 3431 
Q 1906 3584 2284 3584 
Q 2666 3584 2933 3390 
Q 3200 3197 3328 2828 
z
" transform="scale(0.015625)"/>
       <path id="DejaVuSans-69" d="M 603 3500 
L 1178 3500 
L 1178 0 
L 603 0 
L 603 3500 
z
M 603 4863 
L 1178 4863 
L 1178 4134 
L 603 4134 
L 603 4863 
z
" transform="scale(0.015625)"/>
       <path id="DejaVuSans-7a" d="M 353 3500 
L 3084 3500 
L 3084 2975 
L 922 459 
L 3084 459 
L 3084 0 
L 275 0 
L 275 525 
L 2438 3041 
L 353 3041 
L 353 3500 
z
" transform="scale(0.015625)"/>
       <path id="DejaVuSans-64" d="M 2906 2969 
L 2906 4863 
L 3481 4863 
L 3481 0 
L 2906 0 
L 2906 525 
Q 2725 213 2448 61 
Q 2172 -91 1784 -91 
Q 1150 -91 751 415 
Q 353 922 353 1747 
Q 353 2572 751 3078 
Q 1150 3584 1784 3584 
Q 2172 3584 2448 3432 
Q 2725 3281 2906 2969 
z
M 947 1747 
Q 947 1113 1208 752 
Q 1469 391 1925 391 
Q 2381 391 2643 752 
Q 2906 1113 2906 1747 
Q 2906 2381 2643 2742 
Q 2381 3103 1925 3103 
Q 1469 3103 1208 2742 
Q 947 2381 947 1747 
z
" transform="scale(0.015625)"/>
       <path id="DejaVuSans-43" d="M 4122 4306 
L 4122 3641 
Q 3803 3938 3442 4084 
Q 3081 4231 2675 4231 
Q 1875 4231 1450 3742 
Q 1025 3253 1025 2328 
Q 1025 1406 1450 917 
Q 1875 428 2675 428 
Q 3081 428 3442 575 
Q 3803 722 4122 1019 
L 4122 359 
Q 3791 134 3420 21 
Q 3050 -91 2638 -91 
Q 1578 -91 968 557 
Q 359 1206 359 2328 
Q 359 3453 968 4101 
Q 1578 4750 2638 4750 
Q 3056 4750 3426 4639 
Q 3797 4528 4122 4306 
z
" transform="scale(0.015625)"/>
       <path id="DejaVuSans-52" d="M 2841 2188 
Q 3044 2119 3236 1894 
Q 3428 1669 3622 1275 
L 4263 0 
L 3584 0 
L 2988 1197 
Q 2756 1666 2539 1819 
Q 2322 1972 1947 1972 
L 1259 1972 
L 1259 0 
L 628 0 
L 628 4666 
L 2053 4666 
Q 2853 4666 3247 4331 
Q 3641 3997 3641 3322 
Q 3641 2881 3436 2590 
Q 3231 2300 2841 2188 
z
M 1259 4147 
L 1259 2491 
L 2053 2491 
Q 2509 2491 2742 2702 
Q 2975 2913 2975 3322 
Q 2975 3731 2742 3939 
Q 2509 4147 2053 4147 
L 1259 4147 
z
" transform="scale(0.015625)"/>
       <path id="DejaVuSans-73" d="M 2834 3397 
L 2834 2853 
Q 2591 2978 2328 3040 
Q 2066 3103 1784 3103 
Q 1356 3103 1142 2972 
Q 928 2841 928 2578 
Q 928 2378 1081 2264 
Q 1234 2150 1697 2047 
L 1894 2003 
Q 2506 1872 2764 1633 
Q 3022 1394 3022 966 
Q 3022 478 2636 193 
Q 2250 -91 1575 -91 
Q 1294 -91 989 -36 
Q 684 19 347 128 
L 347 722 
Q 666 556 975 473 
Q 1284 391 1588 391 
Q 1994 391 2212 530 
Q 2431 669 2431 922 
Q 2431 1156 2273 1281 
Q 2116 1406 1581 1522 
L 1381 1569 
Q 847 1681 609 1914 
Q 372 2147 372 2553 
Q 372 3047 722 3315 
Q 1072 3584 1716 3584 
Q 2034 3584 2315 3537 
Q 2597 3491 2834 3397 
z
" transform="scale(0.015625)"/>
       <path id="DejaVuSans-2f" d="M 1625 4666 
L 2156 4666 
L 531 -594 
L 0 -594 
L 1625 4666 
z
" transform="scale(0.015625)"/>
       <path id="DejaVuSans-28" d="M 1984 4856 
Q 1566 4138 1362 3434 
Q 1159 2731 1159 2009 
Q 1159 1288 1364 580 
Q 1569 -128 1984 -844 
L 1484 -844 
Q 1016 -109 783 600 
Q 550 1309 550 2009 
Q 550 2706 781 3412 
Q 1013 4119 1484 4856 
L 1984 4856 
z
" transform="scale(0.015625)"/>
       <path id="DejaVuSans-63" d="M 3122 3366 
L 3122 2828 
Q 2878 2963 2633 3030 
Q 2388 3097 2138 3097 
Q 1578 3097 1268 2742 
Q 959 2388 959 1747 
Q 959 1106 1268 751 
Q 1578 397 2138 397 
Q 2388 397 2633 464 
Q 2878 531 3122 666 
L 3122 134 
Q 2881 22 2623 -34 
Q 2366 -91 2075 -91 
Q 1284 -91 818 406 
Q 353 903 353 1747 
Q 353 2603 823 3093 
Q 1294 3584 2113 3584 
Q 2378 3584 2631 3529 
Q 2884 3475 3122 3366 
z
" transform="scale(0.015625)"/>
       <path id="DejaVuSans-22c5" d="M 684 2619 
L 1344 2619 
L 1344 1825 
L 684 1825 
L 684 2619 
z
" transform="scale(0.015625)"/>
       <path id="DejaVuSans-Oblique-73" d="M 3200 3397 
L 3091 2853 
Q 2863 2978 2609 3040 
Q 2356 3103 2088 3103 
Q 1634 3103 1373 2948 
Q 1113 2794 1113 2528 
Q 1113 2219 1719 2053 
Q 1766 2041 1788 2034 
L 1972 1978 
Q 2547 1819 2739 1644 
Q 2931 1469 2931 1166 
Q 2931 609 2489 259 
Q 2047 -91 1331 -91 
Q 1053 -91 747 -37 
Q 441 16 72 128 
L 184 722 
Q 500 559 806 475 
Q 1113 391 1394 391 
Q 1816 391 2080 572 
Q 2344 753 2344 1031 
Q 2344 1331 1650 1516 
L 1591 1531 
L 1394 1581 
Q 956 1697 753 1886 
Q 550 2075 550 2369 
Q 550 2928 970 3256 
Q 1391 3584 2113 3584 
Q 2397 3584 2667 3537 
Q 2938 3491 3200 3397 
z
" transform="scale(0.015625)"/>
       <path id="DejaVuSans-29" d="M 513 4856 
L 1013 4856 
Q 1481 4119 1714 3412 
Q 1947 2706 1947 2009 
Q 1947 1309 1714 600 
Q 1481 -109 1013 -844 
L 513 -844 
Q 928 -128 1133 580 
Q 1338 1288 1338 2009 
Q 1338 2731 1133 3434 
Q 928 4138 513 4856 
z
" transform="scale(0.015625)"/>
      </defs>
      <use xlink:href="#DejaVuSans-41" transform="translate(0 0.171875)"/>
      <use xlink:href="#DejaVuSans-72" transform="translate(68.408203 0.171875)"/>
      <use xlink:href="#DejaVuSans-65" transform="translate(109.521484 0.171875)"/>
      <use xlink:href="#DejaVuSans-61" transform="translate(171.044922 0.171875)"/>
      <use xlink:href="#DejaVuSans-20" transform="translate(232.324219 0.171875)"/>
      <use xlink:href="#DejaVuSans-4e" transform="translate(264.111328 0.171875)"/>
      <use xlink:href="#DejaVuSans-6f" transform="translate(338.916016 0.171875)"/>
      <use xlink:href="#DejaVuSans-72" transform="translate(400.097656 0.171875)"/>
      <use xlink:href="#DejaVuSans-6d" transform="translate(441.210938 0.171875)"/>
      <use xlink:href="#DejaVuSans-61" transform="translate(538.623047 0.171875)"/>
      <use xlink:href="#DejaVuSans-6c" transform="translate(599.902344 0.171875)"/>
      <use xlink:href="#DejaVuSans-69" transform="translate(627.685547 0.171875)"/>
      <use xlink:href="#DejaVuSans-7a" transform="translate(655.46875 0.171875)"/>
      <use xlink:href="#DejaVuSans-65" transform="translate(707.958984 0.171875)"/>
      <use xlink:href="#DejaVuSans-64" transform="translate(769.482422 0.171875)"/>
      <use xlink:href="#DejaVuSans-20" transform="translate(832.958984 0.171875)"/>
      <use xlink:href="#DejaVuSans-43" transform="translate(864.746094 0.171875)"/>
      <use xlink:href="#DejaVuSans-6f" transform="translate(934.570312 0.171875)"/>
      <use xlink:href="#DejaVuSans-75" transform="translate(995.751953 0.171875)"/>
      <use xlink:href="#DejaVuSans-6e" transform="translate(1059.130859 0.171875)"/>
      <use xlink:href="#DejaVuSans-74" transform="translate(1122.509766 0.171875)"/>
      <use xlink:href="#DejaVuSans-52" transform="translate(1161.71875 0.171875)"/>
      <use xlink:href="#DejaVuSans-61" transform="translate(1231.201172 0.171875)"/>
      <use xlink:href="#DejaVuSans-74" transform="translate(1292.480469 0.171875)"/>
      <use xlink:href="#DejaVuSans-65" transform="translate(1331.689453 0.171875)"/>
      <use xlink:href="#DejaVuSans-20" transform="translate(1393.212891 0.171875)"/>
      <use xlink:href="#DejaVuSans-5b" transform="translate(1425 0.171875)"/>
      <use xlink:href="#DejaVuSans-43" transform="translate(1464.013672 0.171875)"/>
      <use xlink:href="#DejaVuSans-6f" transform="translate(1533.837891 0.171875)"/>
      <use xlink:href="#DejaVuSans-75" transform="translate(1595.019531 0.171875)"/>
      <use xlink:href="#DejaVuSans-6e" transform="translate(1658.398438 0.171875)"/>
      <use xlink:href="#DejaVuSans-74" transform="translate(1721.777344 0.171875)"/>
      <use xlink:href="#DejaVuSans-73" transform="translate(1760.986328 0.171875)"/>
      <use xlink:href="#DejaVuSans-2f" transform="translate(1813.085938 0.171875)"/>
      <use xlink:href="#DejaVuSans-28" transform="translate(1846.777344 0.171875)"/>
      <use xlink:href="#DejaVuSans-63" transform="translate(1885.791016 0.171875)"/>
      <use xlink:href="#DejaVuSans-6d" transform="translate(1940.771484 0.171875)"/>
      <use xlink:href="#DejaVuSans-32" transform="translate(2039.140625 38.453125) scale(0.7)"/>
      <use xlink:href="#DejaVuSans-22c5" transform="translate(2105.893555 0.171875)"/>
      <use xlink:href="#DejaVuSans-Oblique-73" transform="translate(2157.163086 0.171875)"/>
      <use xlink:href="#DejaVuSans-22c5" transform="translate(2228.745117 0.171875)"/>
      <use xlink:href="#DejaVuSans-Oblique-c5" transform="translate(2280.014648 0.171875)"/>
      <use xlink:href="#DejaVuSans-29" transform="translate(2348.422852 0.171875)"/>
      <use xlink:href="#DejaVuSans-5d" transform="translate(2387.436523 0.171875)"/>
     </g>
    </g>
   </g>
   <g id="LineCollection_1">
    <path clip-path="url(#p9fa569baf0)" style="fill: none; stroke: #1f77b4; stroke-width: 1.5"/>
    <path d="M 77.791929 244.791858 
L 77.791929 240.112655 
" clip-path="url(#p9fa569baf0)" style="fill: none; stroke: #1f77b4; stroke-width: 1.5"/>
    <path d="M 81.751131 245.947203 
L 81.751131 241.310457 
" clip-path="url(#p9fa569baf0)" style="fill: none; stroke: #1f77b4; stroke-width: 1.5"/>
    <path d="M 85.710333 246.112236 
L 85.710333 241.481587 
" clip-path="url(#p9fa569baf0)" style="fill: none; stroke: #1f77b4; stroke-width: 1.5"/>
    <path d="M 89.669534 228.764401 
L 89.669534 223.532219 
" clip-path="url(#p9fa569baf0)" style="fill: none; stroke: #1f77b4; stroke-width: 1.5"/>
    <path d="M 93.628736 192.490746 
L 93.628736 186.185994 
" clip-path="url(#p9fa569baf0)" style="fill: none; stroke: #1f77b4; stroke-width: 1.5"/>
    <path d="M 97.587938 152.815563 
L 97.587938 145.51802 
" clip-path="url(#p9fa569baf0)" style="fill: none; stroke: #1f77b4; stroke-width: 1.5"/>
    <path d="M 101.54714 121.896163 
L 101.54714 113.910945 
" clip-path="url(#p9fa569baf0)" style="fill: none; stroke: #1f77b4; stroke-width: 1.5"/>
    <path d="M 105.506341 105.510695 
L 105.506341 97.184276 
" clip-path="url(#p9fa569baf0)" style="fill: none; stroke: #1f77b4; stroke-width: 1.5"/>
    <path d="M 109.465543 103.930002 
L 109.465543 95.571412 
" clip-path="url(#p9fa569baf0)" style="fill: none; stroke: #1f77b4; stroke-width: 1.5"/>
    <path d="M 113.424745 110.002846 
L 113.424745 101.768548 
" clip-path="url(#p9fa569baf0)" style="fill: none; stroke: #1f77b4; stroke-width: 1.5"/>
    <path d="M 117.383947 128.464902 
L 117.383947 120.620679 
" clip-path="url(#p9fa569baf0)" style="fill: none; stroke: #1f77b4; stroke-width: 1.5"/>
    <path d="M 121.343149 139.105149 
L 121.343149 131.494917 
" clip-path="url(#p9fa569baf0)" style="fill: none; stroke: #1f77b4; stroke-width: 1.5"/>
    <path d="M 125.30235 139.853156 
L 125.30235 132.259647 
" clip-path="url(#p9fa569baf0)" style="fill: none; stroke: #1f77b4; stroke-width: 1.5"/>
    <path d="M 129.261552 143.177405 
L 129.261552 135.658674 
" clip-path="url(#p9fa569baf0)" style="fill: none; stroke: #1f77b4; stroke-width: 1.5"/>
    <path d="M 133.220754 145.836535 
L 133.220754 138.378166 
" clip-path="url(#p9fa569baf0)" style="fill: none; stroke: #1f77b4; stroke-width: 1.5"/>
    <path d="M 137.179956 149.492435 
L 137.179956 142.117871 
" clip-path="url(#p9fa569baf0)" style="fill: none; stroke: #1f77b4; stroke-width: 1.5"/>
    <path d="M 141.139157 159.460573 
L 141.139157 152.319563 
" clip-path="url(#p9fa569baf0)" style="fill: none; stroke: #1f77b4; stroke-width: 1.5"/>
    <path d="M 145.098359 168.262488 
L 145.098359 161.334331 
" clip-path="url(#p9fa569baf0)" style="fill: none; stroke: #1f77b4; stroke-width: 1.5"/>
    <path d="M 149.057561 167.266208 
L 149.057561 160.313628 
" clip-path="url(#p9fa569baf0)" style="fill: none; stroke: #1f77b4; stroke-width: 1.5"/>
    <path d="M 153.016763 172.579195 
L 153.016763 165.757885 
" clip-path="url(#p9fa569baf0)" style="fill: none; stroke: #1f77b4; stroke-width: 1.5"/>
    <path d="M 156.975965 176.23113 
L 156.975965 169.501553 
" clip-path="url(#p9fa569baf0)" style="fill: none; stroke: #1f77b4; stroke-width: 1.5"/>
    <path d="M 160.935166 186.270602 
L 160.935166 179.799994 
" clip-path="url(#p9fa569baf0)" style="fill: none; stroke: #1f77b4; stroke-width: 1.5"/>
    <path d="M 164.894368 187.846574 
L 164.894368 181.417578 
" clip-path="url(#p9fa569baf0)" style="fill: none; stroke: #1f77b4; stroke-width: 1.5"/>
    <path d="M 168.85357 191.495669 
L 168.85357 185.164088 
" clip-path="url(#p9fa569baf0)" style="fill: none; stroke: #1f77b4; stroke-width: 1.5"/>
    <path d="M 172.812772 184.860409 
L 172.812772 178.352794 
" clip-path="url(#p9fa569baf0)" style="fill: none; stroke: #1f77b4; stroke-width: 1.5"/>
    <path d="M 176.771973 199.454638 
L 176.771973 193.340983 
" clip-path="url(#p9fa569baf0)" style="fill: none; stroke: #1f77b4; stroke-width: 1.5"/>
    <path d="M 180.731175 195.890156 
L 180.731175 189.677943 
" clip-path="url(#p9fa569baf0)" style="fill: none; stroke: #1f77b4; stroke-width: 1.5"/>
    <path d="M 184.690377 194.729459 
L 184.690377 188.485493 
" clip-path="url(#p9fa569baf0)" style="fill: none; stroke: #1f77b4; stroke-width: 1.5"/>
    <path d="M 188.649579 199.205979 
L 188.649579 193.085396 
" clip-path="url(#p9fa569baf0)" style="fill: none; stroke: #1f77b4; stroke-width: 1.5"/>
    <path d="M 192.60878 201.526643 
L 192.60878 195.471026 
" clip-path="url(#p9fa569baf0)" style="fill: none; stroke: #1f77b4; stroke-width: 1.5"/>
    <path d="M 196.567982 194.895278 
L 196.567982 188.655838 
" clip-path="url(#p9fa569baf0)" style="fill: none; stroke: #1f77b4; stroke-width: 1.5"/>
    <path d="M 200.527184 197.465257 
L 200.527184 191.296398 
" clip-path="url(#p9fa569baf0)" style="fill: none; stroke: #1f77b4; stroke-width: 1.5"/>
    <path d="M 204.486386 199.869061 
L 204.486386 193.76697 
" clip-path="url(#p9fa569baf0)" style="fill: none; stroke: #1f77b4; stroke-width: 1.5"/>
    <path d="M 208.445588 200.11771 
L 208.445588 194.022567 
" clip-path="url(#p9fa569baf0)" style="fill: none; stroke: #1f77b4; stroke-width: 1.5"/>
    <path d="M 212.404789 201.94101 
L 212.404789 195.897068 
" clip-path="url(#p9fa569baf0)" style="fill: none; stroke: #1f77b4; stroke-width: 1.5"/>
    <path d="M 216.363991 204.426975 
L 216.363991 198.453561 
" clip-path="url(#p9fa569baf0)" style="fill: none; stroke: #1f77b4; stroke-width: 1.5"/>
    <path d="M 220.323193 200.863631 
L 220.323193 194.789382 
" clip-path="url(#p9fa569baf0)" style="fill: none; stroke: #1f77b4; stroke-width: 1.5"/>
    <path d="M 224.282395 204.675549 
L 224.282395 198.709233 
" clip-path="url(#p9fa569baf0)" style="fill: none; stroke: #1f77b4; stroke-width: 1.5"/>
    <path d="M 228.241596 203.764092 
L 228.241596 197.771789 
" clip-path="url(#p9fa569baf0)" style="fill: none; stroke: #1f77b4; stroke-width: 1.5"/>
    <path d="M 232.200798 203.681229 
L 232.200798 197.686569 
" clip-path="url(#p9fa569baf0)" style="fill: none; stroke: #1f77b4; stroke-width: 1.5"/>
    <path d="M 236.16 200.11771 
L 236.16 194.022567 
" clip-path="url(#p9fa569baf0)" style="fill: none; stroke: #1f77b4; stroke-width: 1.5"/>
    <path d="M 240.119202 209.97742 
L 240.119202 204.164604 
" clip-path="url(#p9fa569baf0)" style="fill: none; stroke: #1f77b4; stroke-width: 1.5"/>
    <path d="M 244.078404 197.796837 
L 244.078404 191.637145 
" clip-path="url(#p9fa569baf0)" style="fill: none; stroke: #1f77b4; stroke-width: 1.5"/>
    <path d="M 248.037605 202.521106 
L 248.037605 196.493546 
" clip-path="url(#p9fa569baf0)" style="fill: none; stroke: #1f77b4; stroke-width: 1.5"/>
    <path d="M 251.996807 200.283473 
L 251.996807 194.192967 
" clip-path="url(#p9fa569baf0)" style="fill: none; stroke: #1f77b4; stroke-width: 1.5"/>
    <path d="M 255.956009 194.231993 
L 255.956009 187.974467 
" clip-path="url(#p9fa569baf0)" style="fill: none; stroke: #1f77b4; stroke-width: 1.5"/>
    <path d="M 259.915211 194.563638 
L 259.915211 188.315149 
" clip-path="url(#p9fa569baf0)" style="fill: none; stroke: #1f77b4; stroke-width: 1.5"/>
    <path d="M 263.874412 192.988263 
L 263.874412 186.696968 
" clip-path="url(#p9fa569baf0)" style="fill: none; stroke: #1f77b4; stroke-width: 1.5"/>
    <path d="M 267.833614 194.14908 
L 267.833614 187.889298 
" clip-path="url(#p9fa569baf0)" style="fill: none; stroke: #1f77b4; stroke-width: 1.5"/>
    <path d="M 271.792816 195.475631 
L 271.792816 189.252058 
" clip-path="url(#p9fa569baf0)" style="fill: none; stroke: #1f77b4; stroke-width: 1.5"/>
    <path d="M 275.752018 195.22691 
L 275.752018 188.996533 
" clip-path="url(#p9fa569baf0)" style="fill: none; stroke: #1f77b4; stroke-width: 1.5"/>
    <path d="M 279.71122 196.636275 
L 279.71122 190.444561 
" clip-path="url(#p9fa569baf0)" style="fill: none; stroke: #1f77b4; stroke-width: 1.5"/>
    <path d="M 283.670421 198.874427 
L 283.670421 192.74462 
" clip-path="url(#p9fa569baf0)" style="fill: none; stroke: #1f77b4; stroke-width: 1.5"/>
    <path d="M 287.629623 203.515503 
L 287.629623 197.516132 
" clip-path="url(#p9fa569baf0)" style="fill: none; stroke: #1f77b4; stroke-width: 1.5"/>
    <path d="M 291.588825 199.371752 
L 291.588825 193.255787 
" clip-path="url(#p9fa569baf0)" style="fill: none; stroke: #1f77b4; stroke-width: 1.5"/>
    <path d="M 295.548027 196.636275 
L 295.548027 190.444561 
" clip-path="url(#p9fa569baf0)" style="fill: none; stroke: #1f77b4; stroke-width: 1.5"/>
    <path d="M 299.507228 192.490746 
L 299.507228 186.185994 
" clip-path="url(#p9fa569baf0)" style="fill: none; stroke: #1f77b4; stroke-width: 1.5"/>
    <path d="M 303.46643 196.055963 
L 303.46643 189.848299 
" clip-path="url(#p9fa569baf0)" style="fill: none; stroke: #1f77b4; stroke-width: 1.5"/>
    <path d="M 307.425632 199.123092 
L 307.425632 193.000202 
" clip-path="url(#p9fa569baf0)" style="fill: none; stroke: #1f77b4; stroke-width: 1.5"/>
    <path d="M 311.384834 203.018313 
L 311.384834 197.004831 
" clip-path="url(#p9fa569baf0)" style="fill: none; stroke: #1f77b4; stroke-width: 1.5"/>
    <path d="M 315.344035 201.526643 
L 315.344035 195.471026 
" clip-path="url(#p9fa569baf0)" style="fill: none; stroke: #1f77b4; stroke-width: 1.5"/>
    <path d="M 319.303237 209.231967 
L 319.303237 203.397321 
" clip-path="url(#p9fa569baf0)" style="fill: none; stroke: #1f77b4; stroke-width: 1.5"/>
    <path d="M 323.262439 211.55102 
L 323.262439 205.784561 
" clip-path="url(#p9fa569baf0)" style="fill: none; stroke: #1f77b4; stroke-width: 1.5"/>
    <path d="M 327.221641 211.55102 
L 327.221641 205.784561 
" clip-path="url(#p9fa569baf0)" style="fill: none; stroke: #1f77b4; stroke-width: 1.5"/>
    <path d="M 331.180843 212.047908 
L 331.180843 206.296165 
" clip-path="url(#p9fa569baf0)" style="fill: none; stroke: #1f77b4; stroke-width: 1.5"/>
    <path d="M 335.140044 218.753979 
L 335.140044 213.204729 
" clip-path="url(#p9fa569baf0)" style="fill: none; stroke: #1f77b4; stroke-width: 1.5"/>
    <path d="M 339.099246 217.264057 
L 339.099246 211.669176 
" clip-path="url(#p9fa569baf0)" style="fill: none; stroke: #1f77b4; stroke-width: 1.5"/>
    <path d="M 343.058448 215.028831 
L 343.058448 209.366191 
" clip-path="url(#p9fa569baf0)" style="fill: none; stroke: #1f77b4; stroke-width: 1.5"/>
    <path d="M 347.01765 218.091815 
L 347.01765 212.522238 
" clip-path="url(#p9fa569baf0)" style="fill: none; stroke: #1f77b4; stroke-width: 1.5"/>
    <path d="M 350.976851 218.009042 
L 350.976851 212.436929 
" clip-path="url(#p9fa569baf0)" style="fill: none; stroke: #1f77b4; stroke-width: 1.5"/>
    <path d="M 354.936053 222.974379 
L 354.936053 217.556507 
" clip-path="url(#p9fa569baf0)" style="fill: none; stroke: #1f77b4; stroke-width: 1.5"/>
    <path d="M 358.895255 223.636258 
L 358.895255 218.239284 
" clip-path="url(#p9fa569baf0)" style="fill: none; stroke: #1f77b4; stroke-width: 1.5"/>
    <path d="M 362.854457 223.470792 
L 362.854457 218.068586 
" clip-path="url(#p9fa569baf0)" style="fill: none; stroke: #1f77b4; stroke-width: 1.5"/>
    <path d="M 366.813659 228.599018 
L 366.813659 223.361439 
" clip-path="url(#p9fa569baf0)" style="fill: none; stroke: #1f77b4; stroke-width: 1.5"/>
    <path d="M 370.77286 228.929782 
L 370.77286 223.703002 
" clip-path="url(#p9fa569baf0)" style="fill: none; stroke: #1f77b4; stroke-width: 1.5"/>
    <path d="M 374.732062 230.996803 
L 374.732062 225.838029 
" clip-path="url(#p9fa569baf0)" style="fill: none; stroke: #1f77b4; stroke-width: 1.5"/>
    <path d="M 378.691264 231.244815 
L 378.691264 226.094263 
" clip-path="url(#p9fa569baf0)" style="fill: none; stroke: #1f77b4; stroke-width: 1.5"/>
    <path d="M 382.650466 232.980715 
L 382.650466 227.888083 
" clip-path="url(#p9fa569baf0)" style="fill: none; stroke: #1f77b4; stroke-width: 1.5"/>
    <path d="M 386.609667 238.186369 
L 386.609667 233.27159 
" clip-path="url(#p9fa569baf0)" style="fill: none; stroke: #1f77b4; stroke-width: 1.5"/>
    <path d="M 390.568869 238.681978 
L 390.568869 233.784473 
" clip-path="url(#p9fa569baf0)" style="fill: none; stroke: #1f77b4; stroke-width: 1.5"/>
    <path d="M 394.528071 238.92977 
L 394.528071 234.040926 
" clip-path="url(#p9fa569baf0)" style="fill: none; stroke: #1f77b4; stroke-width: 1.5"/>
    <path d="M 398.487273 238.186369 
L 398.487273 233.27159 
" clip-path="url(#p9fa569baf0)" style="fill: none; stroke: #1f77b4; stroke-width: 1.5"/>
   </g>
   <g id="line2d_15">
    <defs>
     <path id="m196fe51f49" d="M 3 0 
L -3 -0 
" style="stroke: #1f77b4"/>
    </defs>
    <g clip-path="url(#p9fa569baf0)">
     <use xlink:href="#m196fe51f49" x="76.318275" y="-1" style="fill: #1f77b4; stroke: #1f77b4"/>
     <use xlink:href="#m196fe51f49" x="77.791929" y="244.791858" style="fill: #1f77b4; stroke: #1f77b4"/>
     <use xlink:href="#m196fe51f49" x="81.751131" y="245.947203" style="fill: #1f77b4; stroke: #1f77b4"/>
     <use xlink:href="#m196fe51f49" x="85.710333" y="246.112236" style="fill: #1f77b4; stroke: #1f77b4"/>
     <use xlink:href="#m196fe51f49" x="89.669534" y="228.764401" style="fill: #1f77b4; stroke: #1f77b4"/>
     <use xlink:href="#m196fe51f49" x="93.628736" y="192.490746" style="fill: #1f77b4; stroke: #1f77b4"/>
     <use xlink:href="#m196fe51f49" x="97.587938" y="152.815563" style="fill: #1f77b4; stroke: #1f77b4"/>
     <use xlink:href="#m196fe51f49" x="101.54714" y="121.896163" style="fill: #1f77b4; stroke: #1f77b4"/>
     <use xlink:href="#m196fe51f49" x="105.506341" y="105.510695" style="fill: #1f77b4; stroke: #1f77b4"/>
     <use xlink:href="#m196fe51f49" x="109.465543" y="103.930002" style="fill: #1f77b4; stroke: #1f77b4"/>
     <use xlink:href="#m196fe51f49" x="113.424745" y="110.002846" style="fill: #1f77b4; stroke: #1f77b4"/>
     <use xlink:href="#m196fe51f49" x="117.383947" y="128.464902" style="fill: #1f77b4; stroke: #1f77b4"/>
     <use xlink:href="#m196fe51f49" x="121.343149" y="139.105149" style="fill: #1f77b4; stroke: #1f77b4"/>
     <use xlink:href="#m196fe51f49" x="125.30235" y="139.853156" style="fill: #1f77b4; stroke: #1f77b4"/>
     <use xlink:href="#m196fe51f49" x="129.261552" y="143.177405" style="fill: #1f77b4; stroke: #1f77b4"/>
     <use xlink:href="#m196fe51f49" x="133.220754" y="145.836535" style="fill: #1f77b4; stroke: #1f77b4"/>
     <use xlink:href="#m196fe51f49" x="137.179956" y="149.492435" style="fill: #1f77b4; stroke: #1f77b4"/>
     <use xlink:href="#m196fe51f49" x="141.139157" y="159.460573" style="fill: #1f77b4; stroke: #1f77b4"/>
     <use xlink:href="#m196fe51f49" x="145.098359" y="168.262488" style="fill: #1f77b4; stroke: #1f77b4"/>
     <use xlink:href="#m196fe51f49" x="149.057561" y="167.266208" style="fill: #1f77b4; stroke: #1f77b4"/>
     <use xlink:href="#m196fe51f49" x="153.016763" y="172.579195" style="fill: #1f77b4; stroke: #1f77b4"/>
     <use xlink:href="#m196fe51f49" x="156.975965" y="176.23113" style="fill: #1f77b4; stroke: #1f77b4"/>
     <use xlink:href="#m196fe51f49" x="160.935166" y="186.270602" style="fill: #1f77b4; stroke: #1f77b4"/>
     <use xlink:href="#m196fe51f49" x="164.894368" y="187.846574" style="fill: #1f77b4; stroke: #1f77b4"/>
     <use xlink:href="#m196fe51f49" x="168.85357" y="191.495669" style="fill: #1f77b4; stroke: #1f77b4"/>
     <use xlink:href="#m196fe51f49" x="172.812772" y="184.860409" style="fill: #1f77b4; stroke: #1f77b4"/>
     <use xlink:href="#m196fe51f49" x="176.771973" y="199.454638" style="fill: #1f77b4; stroke: #1f77b4"/>
     <use xlink:href="#m196fe51f49" x="180.731175" y="195.890156" style="fill: #1f77b4; stroke: #1f77b4"/>
     <use xlink:href="#m196fe51f49" x="184.690377" y="194.729459" style="fill: #1f77b4; stroke: #1f77b4"/>
     <use xlink:href="#m196fe51f49" x="188.649579" y="199.205979" style="fill: #1f77b4; stroke: #1f77b4"/>
     <use xlink:href="#m196fe51f49" x="192.60878" y="201.526643" style="fill: #1f77b4; stroke: #1f77b4"/>
     <use xlink:href="#m196fe51f49" x="196.567982" y="194.895278" style="fill: #1f77b4; stroke: #1f77b4"/>
     <use xlink:href="#m196fe51f49" x="200.527184" y="197.465257" style="fill: #1f77b4; stroke: #1f77b4"/>
     <use xlink:href="#m196fe51f49" x="204.486386" y="199.869061" style="fill: #1f77b4; stroke: #1f77b4"/>
     <use xlink:href="#m196fe51f49" x="208.445588" y="200.11771" style="fill: #1f77b4; stroke: #1f77b4"/>
     <use xlink:href="#m196fe51f49" x="212.404789" y="201.94101" style="fill: #1f77b4; stroke: #1f77b4"/>
     <use xlink:href="#m196fe51f49" x="216.363991" y="204.426975" style="fill: #1f77b4; stroke: #1f77b4"/>
     <use xlink:href="#m196fe51f49" x="220.323193" y="200.863631" style="fill: #1f77b4; stroke: #1f77b4"/>
     <use xlink:href="#m196fe51f49" x="224.282395" y="204.675549" style="fill: #1f77b4; stroke: #1f77b4"/>
     <use xlink:href="#m196fe51f49" x="228.241596" y="203.764092" style="fill: #1f77b4; stroke: #1f77b4"/>
     <use xlink:href="#m196fe51f49" x="232.200798" y="203.681229" style="fill: #1f77b4; stroke: #1f77b4"/>
     <use xlink:href="#m196fe51f49" x="236.16" y="200.11771" style="fill: #1f77b4; stroke: #1f77b4"/>
     <use xlink:href="#m196fe51f49" x="240.119202" y="209.97742" style="fill: #1f77b4; stroke: #1f77b4"/>
     <use xlink:href="#m196fe51f49" x="244.078404" y="197.796837" style="fill: #1f77b4; stroke: #1f77b4"/>
     <use xlink:href="#m196fe51f49" x="248.037605" y="202.521106" style="fill: #1f77b4; stroke: #1f77b4"/>
     <use xlink:href="#m196fe51f49" x="251.996807" y="200.283473" style="fill: #1f77b4; stroke: #1f77b4"/>
     <use xlink:href="#m196fe51f49" x="255.956009" y="194.231993" style="fill: #1f77b4; stroke: #1f77b4"/>
     <use xlink:href="#m196fe51f49" x="259.915211" y="194.563638" style="fill: #1f77b4; stroke: #1f77b4"/>
     <use xlink:href="#m196fe51f49" x="263.874412" y="192.988263" style="fill: #1f77b4; stroke: #1f77b4"/>
     <use xlink:href="#m196fe51f49" x="267.833614" y="194.14908" style="fill: #1f77b4; stroke: #1f77b4"/>
     <use xlink:href="#m196fe51f49" x="271.792816" y="195.475631" style="fill: #1f77b4; stroke: #1f77b4"/>
     <use xlink:href="#m196fe51f49" x="275.752018" y="195.22691" style="fill: #1f77b4; stroke: #1f77b4"/>
     <use xlink:href="#m196fe51f49" x="279.71122" y="196.636275" style="fill: #1f77b4; stroke: #1f77b4"/>
     <use xlink:href="#m196fe51f49" x="283.670421" y="198.874427" style="fill: #1f77b4; stroke: #1f77b4"/>
     <use xlink:href="#m196fe51f49" x="287.629623" y="203.515503" style="fill: #1f77b4; stroke: #1f77b4"/>
     <use xlink:href="#m196fe51f49" x="291.588825" y="199.371752" style="fill: #1f77b4; stroke: #1f77b4"/>
     <use xlink:href="#m196fe51f49" x="295.548027" y="196.636275" style="fill: #1f77b4; stroke: #1f77b4"/>
     <use xlink:href="#m196fe51f49" x="299.507228" y="192.490746" style="fill: #1f77b4; stroke: #1f77b4"/>
     <use xlink:href="#m196fe51f49" x="303.46643" y="196.055963" style="fill: #1f77b4; stroke: #1f77b4"/>
     <use xlink:href="#m196fe51f49" x="307.425632" y="199.123092" style="fill: #1f77b4; stroke: #1f77b4"/>
     <use xlink:href="#m196fe51f49" x="311.384834" y="203.018313" style="fill: #1f77b4; stroke: #1f77b4"/>
     <use xlink:href="#m196fe51f49" x="315.344035" y="201.526643" style="fill: #1f77b4; stroke: #1f77b4"/>
     <use xlink:href="#m196fe51f49" x="319.303237" y="209.231967" style="fill: #1f77b4; stroke: #1f77b4"/>
     <use xlink:href="#m196fe51f49" x="323.262439" y="211.55102" style="fill: #1f77b4; stroke: #1f77b4"/>
     <use xlink:href="#m196fe51f49" x="327.221641" y="211.55102" style="fill: #1f77b4; stroke: #1f77b4"/>
     <use xlink:href="#m196fe51f49" x="331.180843" y="212.047908" style="fill: #1f77b4; stroke: #1f77b4"/>
     <use xlink:href="#m196fe51f49" x="335.140044" y="218.753979" style="fill: #1f77b4; stroke: #1f77b4"/>
     <use xlink:href="#m196fe51f49" x="339.099246" y="217.264057" style="fill: #1f77b4; stroke: #1f77b4"/>
     <use xlink:href="#m196fe51f49" x="343.058448" y="215.028831" style="fill: #1f77b4; stroke: #1f77b4"/>
     <use xlink:href="#m196fe51f49" x="347.01765" y="218.091815" style="fill: #1f77b4; stroke: #1f77b4"/>
     <use xlink:href="#m196fe51f49" x="350.976851" y="218.009042" style="fill: #1f77b4; stroke: #1f77b4"/>
     <use xlink:href="#m196fe51f49" x="354.936053" y="222.974379" style="fill: #1f77b4; stroke: #1f77b4"/>
     <use xlink:href="#m196fe51f49" x="358.895255" y="223.636258" style="fill: #1f77b4; stroke: #1f77b4"/>
     <use xlink:href="#m196fe51f49" x="362.854457" y="223.470792" style="fill: #1f77b4; stroke: #1f77b4"/>
     <use xlink:href="#m196fe51f49" x="366.813659" y="228.599018" style="fill: #1f77b4; stroke: #1f77b4"/>
     <use xlink:href="#m196fe51f49" x="370.77286" y="228.929782" style="fill: #1f77b4; stroke: #1f77b4"/>
     <use xlink:href="#m196fe51f49" x="374.732062" y="230.996803" style="fill: #1f77b4; stroke: #1f77b4"/>
     <use xlink:href="#m196fe51f49" x="378.691264" y="231.244815" style="fill: #1f77b4; stroke: #1f77b4"/>
     <use xlink:href="#m196fe51f49" x="382.650466" y="232.980715" style="fill: #1f77b4; stroke: #1f77b4"/>
     <use xlink:href="#m196fe51f49" x="386.609667" y="238.186369" style="fill: #1f77b4; stroke: #1f77b4"/>
     <use xlink:href="#m196fe51f49" x="390.568869" y="238.681978" style="fill: #1f77b4; stroke: #1f77b4"/>
     <use xlink:href="#m196fe51f49" x="394.528071" y="238.92977" style="fill: #1f77b4; stroke: #1f77b4"/>
     <use xlink:href="#m196fe51f49" x="398.487273" y="238.186369" style="fill: #1f77b4; stroke: #1f77b4"/>
    </g>
   </g>
   <g id="line2d_16">
    <g clip-path="url(#p9fa569baf0)">
     <use xlink:href="#m196fe51f49" x="76.370008" y="-1" style="fill: #1f77b4; stroke: #1f77b4"/>
     <use xlink:href="#m196fe51f49" x="77.791929" y="240.112655" style="fill: #1f77b4; stroke: #1f77b4"/>
     <use xlink:href="#m196fe51f49" x="81.751131" y="241.310457" style="fill: #1f77b4; stroke: #1f77b4"/>
     <use xlink:href="#m196fe51f49" x="85.710333" y="241.481587" style="fill: #1f77b4; stroke: #1f77b4"/>
     <use xlink:href="#m196fe51f49" x="89.669534" y="223.532219" style="fill: #1f77b4; stroke: #1f77b4"/>
     <use xlink:href="#m196fe51f49" x="93.628736" y="186.185994" style="fill: #1f77b4; stroke: #1f77b4"/>
     <use xlink:href="#m196fe51f49" x="97.587938" y="145.51802" style="fill: #1f77b4; stroke: #1f77b4"/>
     <use xlink:href="#m196fe51f49" x="101.54714" y="113.910945" style="fill: #1f77b4; stroke: #1f77b4"/>
     <use xlink:href="#m196fe51f49" x="105.506341" y="97.184276" style="fill: #1f77b4; stroke: #1f77b4"/>
     <use xlink:href="#m196fe51f49" x="109.465543" y="95.571412" style="fill: #1f77b4; stroke: #1f77b4"/>
     <use xlink:href="#m196fe51f49" x="113.424745" y="101.768548" style="fill: #1f77b4; stroke: #1f77b4"/>
     <use xlink:href="#m196fe51f49" x="117.383947" y="120.620679" style="fill: #1f77b4; stroke: #1f77b4"/>
     <use xlink:href="#m196fe51f49" x="121.343149" y="131.494917" style="fill: #1f77b4; stroke: #1f77b4"/>
     <use xlink:href="#m196fe51f49" x="125.30235" y="132.259647" style="fill: #1f77b4; stroke: #1f77b4"/>
     <use xlink:href="#m196fe51f49" x="129.261552" y="135.658674" style="fill: #1f77b4; stroke: #1f77b4"/>
     <use xlink:href="#m196fe51f49" x="133.220754" y="138.378166" style="fill: #1f77b4; stroke: #1f77b4"/>
     <use xlink:href="#m196fe51f49" x="137.179956" y="142.117871" style="fill: #1f77b4; stroke: #1f77b4"/>
     <use xlink:href="#m196fe51f49" x="141.139157" y="152.319563" style="fill: #1f77b4; stroke: #1f77b4"/>
     <use xlink:href="#m196fe51f49" x="145.098359" y="161.334331" style="fill: #1f77b4; stroke: #1f77b4"/>
     <use xlink:href="#m196fe51f49" x="149.057561" y="160.313628" style="fill: #1f77b4; stroke: #1f77b4"/>
     <use xlink:href="#m196fe51f49" x="153.016763" y="165.757885" style="fill: #1f77b4; stroke: #1f77b4"/>
     <use xlink:href="#m196fe51f49" x="156.975965" y="169.501553" style="fill: #1f77b4; stroke: #1f77b4"/>
     <use xlink:href="#m196fe51f49" x="160.935166" y="179.799994" style="fill: #1f77b4; stroke: #1f77b4"/>
     <use xlink:href="#m196fe51f49" x="164.894368" y="181.417578" style="fill: #1f77b4; stroke: #1f77b4"/>
     <use xlink:href="#m196fe51f49" x="168.85357" y="185.164088" style="fill: #1f77b4; stroke: #1f77b4"/>
     <use xlink:href="#m196fe51f49" x="172.812772" y="178.352794" style="fill: #1f77b4; stroke: #1f77b4"/>
     <use xlink:href="#m196fe51f49" x="176.771973" y="193.340983" style="fill: #1f77b4; stroke: #1f77b4"/>
     <use xlink:href="#m196fe51f49" x="180.731175" y="189.677943" style="fill: #1f77b4; stroke: #1f77b4"/>
     <use xlink:href="#m196fe51f49" x="184.690377" y="188.485493" style="fill: #1f77b4; stroke: #1f77b4"/>
     <use xlink:href="#m196fe51f49" x="188.649579" y="193.085396" style="fill: #1f77b4; stroke: #1f77b4"/>
     <use xlink:href="#m196fe51f49" x="192.60878" y="195.471026" style="fill: #1f77b4; stroke: #1f77b4"/>
     <use xlink:href="#m196fe51f49" x="196.567982" y="188.655838" style="fill: #1f77b4; stroke: #1f77b4"/>
     <use xlink:href="#m196fe51f49" x="200.527184" y="191.296398" style="fill: #1f77b4; stroke: #1f77b4"/>
     <use xlink:href="#m196fe51f49" x="204.486386" y="193.76697" style="fill: #1f77b4; stroke: #1f77b4"/>
     <use xlink:href="#m196fe51f49" x="208.445588" y="194.022567" style="fill: #1f77b4; stroke: #1f77b4"/>
     <use xlink:href="#m196fe51f49" x="212.404789" y="195.897068" style="fill: #1f77b4; stroke: #1f77b4"/>
     <use xlink:href="#m196fe51f49" x="216.363991" y="198.453561" style="fill: #1f77b4; stroke: #1f77b4"/>
     <use xlink:href="#m196fe51f49" x="220.323193" y="194.789382" style="fill: #1f77b4; stroke: #1f77b4"/>
     <use xlink:href="#m196fe51f49" x="224.282395" y="198.709233" style="fill: #1f77b4; stroke: #1f77b4"/>
     <use xlink:href="#m196fe51f49" x="228.241596" y="197.771789" style="fill: #1f77b4; stroke: #1f77b4"/>
     <use xlink:href="#m196fe51f49" x="232.200798" y="197.686569" style="fill: #1f77b4; stroke: #1f77b4"/>
     <use xlink:href="#m196fe51f49" x="236.16" y="194.022567" style="fill: #1f77b4; stroke: #1f77b4"/>
     <use xlink:href="#m196fe51f49" x="240.119202" y="204.164604" style="fill: #1f77b4; stroke: #1f77b4"/>
     <use xlink:href="#m196fe51f49" x="244.078404" y="191.637145" style="fill: #1f77b4; stroke: #1f77b4"/>
     <use xlink:href="#m196fe51f49" x="248.037605" y="196.493546" style="fill: #1f77b4; stroke: #1f77b4"/>
     <use xlink:href="#m196fe51f49" x="251.996807" y="194.192967" style="fill: #1f77b4; stroke: #1f77b4"/>
     <use xlink:href="#m196fe51f49" x="255.956009" y="187.974467" style="fill: #1f77b4; stroke: #1f77b4"/>
     <use xlink:href="#m196fe51f49" x="259.915211" y="188.315149" style="fill: #1f77b4; stroke: #1f77b4"/>
     <use xlink:href="#m196fe51f49" x="263.874412" y="186.696968" style="fill: #1f77b4; stroke: #1f77b4"/>
     <use xlink:href="#m196fe51f49" x="267.833614" y="187.889298" style="fill: #1f77b4; stroke: #1f77b4"/>
     <use xlink:href="#m196fe51f49" x="271.792816" y="189.252058" style="fill: #1f77b4; stroke: #1f77b4"/>
     <use xlink:href="#m196fe51f49" x="275.752018" y="188.996533" style="fill: #1f77b4; stroke: #1f77b4"/>
     <use xlink:href="#m196fe51f49" x="279.71122" y="190.444561" style="fill: #1f77b4; stroke: #1f77b4"/>
     <use xlink:href="#m196fe51f49" x="283.670421" y="192.74462" style="fill: #1f77b4; stroke: #1f77b4"/>
     <use xlink:href="#m196fe51f49" x="287.629623" y="197.516132" style="fill: #1f77b4; stroke: #1f77b4"/>
     <use xlink:href="#m196fe51f49" x="291.588825" y="193.255787" style="fill: #1f77b4; stroke: #1f77b4"/>
     <use xlink:href="#m196fe51f49" x="295.548027" y="190.444561" style="fill: #1f77b4; stroke: #1f77b4"/>
     <use xlink:href="#m196fe51f49" x="299.507228" y="186.185994" style="fill: #1f77b4; stroke: #1f77b4"/>
     <use xlink:href="#m196fe51f49" x="303.46643" y="189.848299" style="fill: #1f77b4; stroke: #1f77b4"/>
     <use xlink:href="#m196fe51f49" x="307.425632" y="193.000202" style="fill: #1f77b4; stroke: #1f77b4"/>
     <use xlink:href="#m196fe51f49" x="311.384834" y="197.004831" style="fill: #1f77b4; stroke: #1f77b4"/>
     <use xlink:href="#m196fe51f49" x="315.344035" y="195.471026" style="fill: #1f77b4; stroke: #1f77b4"/>
     <use xlink:href="#m196fe51f49" x="319.303237" y="203.397321" style="fill: #1f77b4; stroke: #1f77b4"/>
     <use xlink:href="#m196fe51f49" x="323.262439" y="205.784561" style="fill: #1f77b4; stroke: #1f77b4"/>
     <use xlink:href="#m196fe51f49" x="327.221641" y="205.784561" style="fill: #1f77b4; stroke: #1f77b4"/>
     <use xlink:href="#m196fe51f49" x="331.180843" y="206.296165" style="fill: #1f77b4; stroke: #1f77b4"/>
     <use xlink:href="#m196fe51f49" x="335.140044" y="213.204729" style="fill: #1f77b4; stroke: #1f77b4"/>
     <use xlink:href="#m196fe51f49" x="339.099246" y="211.669176" style="fill: #1f77b4; stroke: #1f77b4"/>
     <use xlink:href="#m196fe51f49" x="343.058448" y="209.366191" style="fill: #1f77b4; stroke: #1f77b4"/>
     <use xlink:href="#m196fe51f49" x="347.01765" y="212.522238" style="fill: #1f77b4; stroke: #1f77b4"/>
     <use xlink:href="#m196fe51f49" x="350.976851" y="212.436929" style="fill: #1f77b4; stroke: #1f77b4"/>
     <use xlink:href="#m196fe51f49" x="354.936053" y="217.556507" style="fill: #1f77b4; stroke: #1f77b4"/>
     <use xlink:href="#m196fe51f49" x="358.895255" y="218.239284" style="fill: #1f77b4; stroke: #1f77b4"/>
     <use xlink:href="#m196fe51f49" x="362.854457" y="218.068586" style="fill: #1f77b4; stroke: #1f77b4"/>
     <use xlink:href="#m196fe51f49" x="366.813659" y="223.361439" style="fill: #1f77b4; stroke: #1f77b4"/>
     <use xlink:href="#m196fe51f49" x="370.77286" y="223.703002" style="fill: #1f77b4; stroke: #1f77b4"/>
     <use xlink:href="#m196fe51f49" x="374.732062" y="225.838029" style="fill: #1f77b4; stroke: #1f77b4"/>
     <use xlink:href="#m196fe51f49" x="378.691264" y="226.094263" style="fill: #1f77b4; stroke: #1f77b4"/>
     <use xlink:href="#m196fe51f49" x="382.650466" y="227.888083" style="fill: #1f77b4; stroke: #1f77b4"/>
     <use xlink:href="#m196fe51f49" x="386.609667" y="233.27159" style="fill: #1f77b4; stroke: #1f77b4"/>
     <use xlink:href="#m196fe51f49" x="390.568869" y="233.784473" style="fill: #1f77b4; stroke: #1f77b4"/>
     <use xlink:href="#m196fe51f49" x="394.528071" y="234.040926" style="fill: #1f77b4; stroke: #1f77b4"/>
     <use xlink:href="#m196fe51f49" x="398.487273" y="233.27159" style="fill: #1f77b4; stroke: #1f77b4"/>
    </g>
   </g>
   <g id="patch_3">
    <path d="M 57.6 307.584 
L 57.6 41.472 
" style="fill: none; stroke: #000000; stroke-width: 0.8; stroke-linejoin: miter; stroke-linecap: square"/>
   </g>
   <g id="patch_4">
    <path d="M 414.72 307.584 
L 414.72 41.472 
" style="fill: none; stroke: #000000; stroke-width: 0.8; stroke-linejoin: miter; stroke-linecap: square"/>
   </g>
   <g id="patch_5">
    <path d="M 57.6 307.584 
L 414.72 307.584 
" style="fill: none; stroke: #000000; stroke-width: 0.8; stroke-linejoin: miter; stroke-linecap: square"/>
   </g>
   <g id="patch_6">
    <path d="M 57.6 41.472 
L 414.72 41.472 
" style="fill: none; stroke: #000000; stroke-width: 0.8; stroke-linejoin: miter; stroke-linecap: square"/>
   </g>
  </g>
 </g>
 <defs>
  <clipPath id="p9fa569baf0">
   <rect x="57.6" y="41.472" width="357.12" height="266.112"/>
  </clipPath>
 </defs>
</svg>
